<svg width="100" height="100" viewBox="0 0 100 100" fill="none" xmlns="http://www.w3.org/2000/svg">
<g clip-path="url(#clip0_1_200)">
<rect width="100" height="100" fill="none"/>
<line y1="49.95" x2="100" y2="49.95" stroke="black" stroke-opacity="0.2" stroke-width="0.1" stroke-linejoin="round"/>
<line x1="49.05" x2="49.05" y2="101" stroke="black" stroke-opacity="0.2" stroke-width="0.1" stroke-linejoin="round"/>
<rect x="10" y="10" width="80" height="80" stroke="black" stroke-opacity="0.2" stroke-width="0.1" stroke-linejoin="round"/>
<rect x="30" y="30" width="40" height="40" stroke="black" stroke-opacity="0.2" stroke-width="0.1" stroke-linejoin="round"/>
<circle cx="50" cy="50" r="20" stroke="black" stroke-opacity="0.2" stroke-width="0.1" stroke-linejoin="round"/>
<circle cx="50" cy="50" r="40" stroke="black" stroke-opacity="0.2" stroke-width="0.1" stroke-linejoin="round"/>
<line x1="0.0353553" y1="-0.0353553" x2="100.035" y2="99.9646" stroke="black" stroke-opacity="0.2" stroke-width="0.1" stroke-linejoin="round"/>
<line y1="-0.05" x2="141.421" y2="-0.05" transform="matrix(-0.707107 0.707107 0.707107 0.707107 100 0)" stroke="black" stroke-opacity="0.2" stroke-width="0.1" stroke-linejoin="round"/>
<rect x="10" y="34.8765" width="80" height="19.0123" rx="9.50617" fill="#BAD8FF"/>
<ellipse cx="31.2658" cy="34.8765" rx="15.1899" ry="12.963" fill="#BAD8FF"/>
<ellipse cx="64.6835" cy="34.8765" rx="15.1899" ry="12.963" fill="#BAD8FF"/>
<ellipse cx="44.4304" cy="27.963" rx="15.1899" ry="12.963" fill="#BAD8FF"/>
<path d="M42.6431 57.3457 H51.715 L49.447 73.9383 H39.3671 L42.6431 60.3457Z" fill="#FBDC7E"/>
<path d="M100.971 65.642 H60.9329 L46.913 85 L48.971 65.642Z" fill="#FBDC7E"/>
</g>
<defs>
<clipPath id="clip0_1_200">
<rect width="100" height="100" fill="white"/>
</clipPath>
</defs>
</svg>
