<svg width="100" height="100" viewBox="0 0 100 100" fill="none" xmlns="http://www.w3.org/2000/svg">
<g clip-path="url(#clip0_1_98)">
<rect width="100" height="100" fill="none"/>
<line y1="49.95" x2="100" y2="49.95" stroke="black" stroke-opacity="0.2" stroke-width="0.1" stroke-linejoin="round"/>
<line x1="49.05" x2="49.05" y2="101" stroke="black" stroke-opacity="0.2" stroke-width="0.1" stroke-linejoin="round"/>
<rect x="10" y="10" width="80" height="80" stroke="black" stroke-opacity="0.2" stroke-width="0.1" stroke-linejoin="round"/>
<rect x="30" y="30" width="40" height="40" stroke="black" stroke-opacity="0.2" stroke-width="0.1" stroke-linejoin="round"/>
<circle cx="50" cy="50" r="20" stroke="black" stroke-opacity="0.2" stroke-width="0.1" stroke-linejoin="round"/>
<circle cx="50" cy="50" r="40" stroke="black" stroke-opacity="0.2" stroke-width="0.1" stroke-linejoin="round"/>
<line x1="0.0353553" y1="-0.0353553" x2="100.035" y2="99.9646" stroke="black" stroke-opacity="0.2" stroke-width="0.1" stroke-linejoin="round"/>
<line y1="-0.05" x2="141.421" y2="-0.05" transform="matrix(-0.707107 0.707107 0.707107 0.707107 100 0)" stroke="black" stroke-opacity="0.2" stroke-width="0.1" stroke-linejoin="round"/>
<rect x="27.2" y="47.549" width="63.2" height="21.5686" rx="10.7843" fill="#BAD8FF"/>
<ellipse cx="44" cy="47.549" rx="12" ry="14.7059" fill="#BAD8FF"/>
<ellipse cx="70.4" cy="47.549" rx="12" ry="14.7059" fill="#BAD8FF"/>
<ellipse cx="54.4" cy="39.7059" rx="12" ry="14.7059" fill="#BAD8FF"/>
<rect x="8" y="53.4314" width="63.2" height="21.5686" rx="10.7843" fill="#FAF7F7"/>
<ellipse cx="24.8" cy="53.4314" rx="12" ry="14.7059" fill="#FAF7F7"/>
<ellipse cx="51.2" cy="53.4314" rx="12" ry="14.7059" fill="#FAF7F7"/>
<ellipse cx="35.2" cy="45.5882" rx="12" ry="14.7059" fill="#FAF7F7"/>
</g>
<defs>
<clipPath id="clip0_1_98">
<rect width="100" height="100" fill="white"/>
</clipPath>
</defs>
</svg>
