<svg width="100" height="100" viewBox="0 0 100 100" fill="none" xmlns="http://www.w3.org/2000/svg">
<g clip-path="url(#clip0_1_225)">
<rect width="100" height="100" fill="none"/>
<line y1="49.95" x2="100" y2="49.95" stroke="black" stroke-opacity="0.2" stroke-width="0.1" stroke-linejoin="round"/>
<line x1="49.05" x2="49.05" y2="101" stroke="black" stroke-opacity="0.2" stroke-width="0.1" stroke-linejoin="round"/>
<rect x="10" y="10" width="80" height="80" stroke="black" stroke-opacity="0.2" stroke-width="0.1" stroke-linejoin="round"/>
<rect x="30" y="30" width="40" height="40" stroke="black" stroke-opacity="0.2" stroke-width="0.1" stroke-linejoin="round"/>
<circle cx="50" cy="50" r="20" stroke="black" stroke-opacity="0.2" stroke-width="0.1" stroke-linejoin="round"/>
<circle cx="50" cy="50" r="40" stroke="black" stroke-opacity="0.2" stroke-width="0.1" stroke-linejoin="round"/>
<line x1="0.0353553" y1="-0.0353553" x2="100.035" y2="99.9646" stroke="black" stroke-opacity="0.2" stroke-width="0.1" stroke-linejoin="round"/>
<line y1="-0.05" x2="141.421" y2="-0.05" transform="matrix(-0.707107 0.707107 0.707107 0.707107 100 0)" stroke="black" stroke-opacity="0.2" stroke-width="0.1" stroke-linejoin="round"/>
<rect x="10" y="35.9091" width="80" height="20" rx="10" fill="#FAF7F7"/>
<ellipse cx="31.2658" cy="35.9091" rx="15.1899" ry="13.6364" fill="#FAF7F7"/>
<ellipse cx="64.6835" cy="35.9091" rx="15.1899" ry="13.6364" fill="#FAF7F7"/>
<ellipse cx="44.4304" cy="28.6364" rx="15.1899" ry="13.6364" fill="#FAF7F7"/>
<ellipse cx="34.6413" cy="64.3939" rx="3.37553" ry="3.0303" fill="#FAF7F7"/>
<ellipse cx="48.1435" cy="64.3939" rx="3.37553" ry="3.0303" fill="#FAF7F7"/>
<ellipse cx="48.1435" cy="81.9697" rx="3.37553" ry="3.0303" fill="#FAF7F7"/>
<ellipse cx="41.3924" cy="73.4848" rx="3.37553" ry="3.0303" fill="#FAF7F7"/>
<ellipse cx="54.8945" cy="73.4848" rx="3.37553" ry="3.0303" fill="#FAF7F7"/>
<ellipse cx="61.6456" cy="64.3939" rx="3.37553" ry="3.0303" fill="#FAF7F7"/>
</g>
<defs>
<clipPath id="clip0_1_225">
<rect width="100" height="100" fill="white"/>
</clipPath>
</defs>
</svg>
